HIERARCHY
ROOT Hips
{
    OFFSET   0.000000   0.000000   0.000000
    CHANNELS 6 Xposition Yposition Zposition Zrotation Xrotation Yrotation
    JOINT Chest
    {
        OFFSET   0.000000   8.007240   0.000000
        CHANNELS 3 Zrotation Xrotation Yrotation
        JOINT Chest2
        {
            OFFSET   0.000000  22.077100   0.000000
            CHANNELS 3 Zrotation Xrotation Yrotation
            JOINT Neck
            {
                OFFSET   0.000000  23.254800   0.000000
                CHANNELS 3 Zrotation Xrotation Yrotation
                JOINT Head
                {
                    OFFSET   0.000000  14.370000   1.956600
                    CHANNELS 3 Zrotation Xrotation Yrotation
                    End Site
                    {
                        OFFSET   0.000000  19.566000   0.000000
                    }
                }
            }
            JOINT LeftCollar
            {
                OFFSET   3.911900  19.017000  -0.467064
                CHANNELS 3 Zrotation Xrotation Yrotation
                JOINT LeftShoulder
                {
                    OFFSET  10.383700   0.000000   0.000000
                    CHANNELS 3 Zrotation Xrotation Yrotation
                    JOINT LeftElbow
                    {
                        OFFSET  26.662100   0.001476   0.000517
                        CHANNELS 3 Zrotation Xrotation Yrotation
                        JOINT LeftWrist
                        {
                            OFFSET  28.869000  -0.000025  -0.000106
                            CHANNELS 3 Zrotation Xrotation Yrotation
                            JOINT LeftFinger0
                            {
                                OFFSET   2.044660  -2.323460   3.252850
                                CHANNELS 3 Zrotation Xrotation Yrotation
                                JOINT LeftFinger01
                                {
                                    OFFSET   3.088130   0.000000   0.000000
                                    CHANNELS 3 Zrotation Xrotation Yrotation
                                    JOINT LeftFinger02
                                    {
                                        OFFSET   2.639460   0.000000   0.000000
                                        CHANNELS 3 Zrotation Xrotation Yrotation
                                        End Site
                                        {
                                            OFFSET   2.582190   0.000000   0.000000
                                        }
                                    }
                                }
                            }
                            JOINT LeftFinger1
                            {
                                OFFSET   8.364480   0.000000   3.252850
                                CHANNELS 3 Zrotation Xrotation Yrotation
                                JOINT LeftFinger11
                                {
                                    OFFSET   4.646930   0.000000   0.000000
                                    CHANNELS 3 Zrotation Xrotation Yrotation
                                    JOINT LeftFinger12
                                    {
                                        OFFSET   2.323460   0.000000   0.000000
                                        CHANNELS 3 Zrotation Xrotation Yrotation
                                        End Site
                                        {
                                            OFFSET   2.273050   0.000000   0.000000
                                        }
                                    }
                                }
                            }
                            JOINT LeftFinger2
                            {
                                OFFSET   8.364490   0.000015   1.078090
                                CHANNELS 3 Zrotation Xrotation Yrotation
                                JOINT LeftFinger21
                                {
                                    OFFSET   5.111620   0.000000   0.000000
                                    CHANNELS 3 Zrotation Xrotation Yrotation
                                    JOINT LeftFinger22
                                    {
                                        OFFSET   2.788160   0.000016   0.000000
                                        CHANNELS 3 Zrotation Xrotation Yrotation
                                        End Site
                                        {
                                            OFFSET   2.727660   0.000000   0.000000
                                        }
                                    }
                                }
                            }
                            JOINT LeftFinger3
                            {
                                OFFSET   7.899780   0.000017  -1.078090
                                CHANNELS 3 Zrotation Xrotation Yrotation
                                JOINT LeftFinger31
                                {
                                    OFFSET   4.646930   0.000000   0.000000
                                    CHANNELS 3 Zrotation Xrotation Yrotation
                                    JOINT LeftFinger32
                                    {
                                        OFFSET   2.323470   0.000000   0.000000
                                        CHANNELS 3 Zrotation Xrotation Yrotation
                                        End Site
                                        {
                                            OFFSET   2.273050   0.000000   0.000000
                                        }
                                    }
                                }
                            }
                            JOINT LeftFinger4
                            {
                                OFFSET   7.435090   0.000000  -3.252850
                                CHANNELS 3 Zrotation Xrotation Yrotation
                                JOINT LeftFinger41
                                {
                                    OFFSET   3.717550   0.000000   0.000000
                                    CHANNELS 3 Zrotation Xrotation Yrotation
                                    JOINT LeftFinger42
                                    {
                                        OFFSET   1.858770   0.000000   0.000000
                                        CHANNELS 3 Zrotation Xrotation Yrotation
                                        End Site
                                        {
                                            OFFSET   1.818440   0.000000   0.000000
                                        }
                                    }
                                }
                            }
                        }
                    }
                }
            }
            JOINT RightCollar
            {
                OFFSET  -3.911900  19.017000  -0.467063
                CHANNELS 3 Zrotation Xrotation Yrotation
                JOINT RightShoulder
                {
                    OFFSET -10.383700   0.000019   0.000000
                    CHANNELS 3 Zrotation Xrotation Yrotation
                    JOINT RightElbow
                    {
                        OFFSET -26.662100   0.001175   0.000102
                        CHANNELS 3 Zrotation Xrotation Yrotation
                        JOINT RightWrist
                        {
                            OFFSET -28.869000   0.000016  -0.000079
                            CHANNELS 3 Zrotation Xrotation Yrotation
                            JOINT RightFinger0
                            {
                                OFFSET  -2.044660  -2.323490   3.252850
                                CHANNELS 3 Zrotation Xrotation Yrotation
                                JOINT RightFinger01
                                {
                                    OFFSET  -3.088140   0.000000   0.000000
                                    CHANNELS 3 Zrotation Xrotation Yrotation
                                    JOINT RightFinger02
                                    {
                                        OFFSET  -2.639460   0.000000   0.000000
                                        CHANNELS 3 Zrotation Xrotation Yrotation
                                        End Site
                                        {
                                            OFFSET  -2.582190   0.000000   0.000000
                                        }
                                    }
                                }
                            }
                            JOINT RightFinger1
                            {
                                OFFSET  -8.364480   0.000000   3.252850
                                CHANNELS 3 Zrotation Xrotation Yrotation
                                JOINT RightFinger11
                                {
                                    OFFSET  -4.646930   0.000000   0.000000
                                    CHANNELS 3 Zrotation Xrotation Yrotation
                                    JOINT RightFinger12
                                    {
                                        OFFSET  -2.323470   0.000000   0.000000
                                        CHANNELS 3 Zrotation Xrotation Yrotation
                                        End Site
                                        {
                                            OFFSET  -2.273050   0.000000   0.000000
                                        }
                                    }
                                }
                            }
                            JOINT RightFinger2
                            {
                                OFFSET  -8.364480   0.000000   1.078090
                                CHANNELS 3 Zrotation Xrotation Yrotation
                                JOINT RightFinger21
                                {
                                    OFFSET  -5.111620   0.000000   0.000000
                                    CHANNELS 3 Zrotation Xrotation Yrotation
                                    JOINT RightFinger22
                                    {
                                        OFFSET  -2.788160   0.000000   0.000000
                                        CHANNELS 3 Zrotation Xrotation Yrotation
                                        End Site
                                        {
                                            OFFSET  -2.727660   0.000000   0.000000
                                        }
                                    }
                                }
                            }
                            JOINT RightFinger3
                            {
                                OFFSET  -7.899780   0.000000  -1.078090
                                CHANNELS 3 Zrotation Xrotation Yrotation
                                JOINT RightFinger31
                                {
                                    OFFSET  -4.646930   0.000000   0.000000
                                    CHANNELS 3 Zrotation Xrotation Yrotation
                                    JOINT RightFinger32
                                    {
                                        OFFSET  -2.323470   0.000000   0.000000
                                        CHANNELS 3 Zrotation Xrotation Yrotation
                                        End Site
                                        {
                                            OFFSET  -2.273050   0.000000   0.000000
                                        }
                                    }
                                }
                            }
                            JOINT RightFinger4
                            {
                                OFFSET  -7.435090   0.000000  -3.252850
                                CHANNELS 3 Zrotation Xrotation Yrotation
                                JOINT RightFinger41
                                {
                                    OFFSET  -3.717550   0.000000   0.000000
                                    CHANNELS 3 Zrotation Xrotation Yrotation
                                    JOINT RightFinger42
                                    {
                                        OFFSET  -1.858770   0.000000   0.000000
                                        CHANNELS 3 Zrotation Xrotation Yrotation
                                        End Site
                                        {
                                            OFFSET  -1.818440   0.000000   0.000000
                                        }
                                    }
                                }
                            }
                        }
                    }
                }
            }
        }
    }
    JOINT LeftHip
    {
        OFFSET   9.783040   0.000000   0.000000
        CHANNELS 3 Zrotation Xrotation Yrotation
        JOINT LeftKnee
        {
            OFFSET   0.000032 -41.789100  -0.002222
            CHANNELS 3 Zrotation Xrotation Yrotation
            JOINT LeftAnkle
            {
                OFFSET   0.000087 -41.133200  -0.000135
                CHANNELS 3 Zrotation Xrotation Yrotation
                JOINT LeftToe
                {
                    OFFSET   0.000000  -6.358960  14.674500
                    CHANNELS 3 Zrotation Xrotation Yrotation
                    End Site
                    {
                        OFFSET   0.000000   0.000000   3.913200
                    }
                }
            }
        }
    }
    JOINT RightHip
    {
        OFFSET  -9.783040   0.000000   0.000000
        CHANNELS 3 Zrotation Xrotation Yrotation
        JOINT RightKnee
        {
            OFFSET   0.000047 -41.789100  -0.000896
            CHANNELS 3 Zrotation Xrotation Yrotation
            JOINT RightAnkle
            {
                OFFSET  -0.000117 -41.133300  -0.000248
                CHANNELS 3 Zrotation Xrotation Yrotation
                JOINT RightToe
                {
                    OFFSET   0.000000  -6.358970  14.674500
                    CHANNELS 3 Zrotation Xrotation Yrotation
                    End Site
                    {
                        OFFSET   0.000000   0.000000   3.913200
                    }
                }
            }
        }
    }
}
MOTION
Frames: 4
Frame Time:   0.016667
  1.227280  89.086400  -0.033625  -2.543150 -24.038300   3.154200  -4.727380  14.928000   8.669930 -12.440600  28.851000  19.621000 -12.591000  -3.496040  -0.780439 -20.858200  -6.071560 -15.053000 -11.772100  -7.255390  -3.950600 -66.320100   2.951340 -45.528500  -9.626070   6.230520 -131.030000  42.405000  16.016000 -36.162300  35.531500  27.490300 -71.255900   7.620330  -0.000297   0.002956   8.810180  -0.000470   0.000618  -5.411210   0.907543  -9.492650  -4.488980   0.000697   0.004555  -3.142280   0.000510   0.009544  -5.376630   0.901905  -9.493050  -5.451460   0.005224   0.000320  -3.630670   0.003750   0.002806  -3.607170   0.475089  -7.492690  -3.638350   0.000240   0.004701  -2.423150  -0.001814  -0.000085   6.047270   0.914726   8.568500  -0.000001  -0.006354  -0.006185  -0.000000  -0.004235  -0.002211  -6.994960 -10.189000  10.647000  19.764700  14.053500  98.601400 -27.484200 -12.548300  79.887900 -13.641600  26.782100  19.813900 -46.863200  37.197700  66.356800  24.822400   0.000000  -0.000621   7.411210   0.001619   0.005543  -1.763090  -0.113562   3.763600  -0.000000  -0.000225  -0.007181  -0.006103   0.002133  -0.005891  -3.357810   0.049505  -0.845796   0.000123   0.001115  -0.010218   0.006663   0.000576  -0.013225  -0.063907   0.007886  -7.132770  -0.000067   0.006639  -0.006386  -0.001677   0.004429  -0.002742   4.434000  -0.559457  -7.111320   6.703320   0.002531  -0.002913   4.464420   0.007072  -0.002660   2.573210  26.882700   3.384560   0.455964   0.145398   3.769850  -1.160270  -3.134940   1.900710  -0.000000   0.000000   0.000000   3.576200  14.681500  -2.871530  -0.013998  19.289900  -8.797060  -4.002570  -8.339530  -2.721110  -0.000000   0.000000   0.000000
  1.295960  89.086500  -0.067024  -2.592390 -24.026700   3.004590  -4.651270  14.901400   8.640050 -12.266300  28.816300  19.531500 -12.587300  -3.479540  -0.776607 -20.849500  -6.043180 -15.071100 -11.753300  -7.208050  -3.973980 -66.348400   3.016420 -45.545900  -9.605960   6.068340 -131.011000  42.307100  15.934600 -36.014900  35.474300  27.422500 -71.227600   7.461020  -0.000230   0.003078   8.730520  -0.000417   0.000655  -5.386390   0.916416  -9.636990  -4.470680   0.000805   0.004722  -3.129480   0.000579   0.009770  -5.435330   0.926885  -9.636180  -5.512890   0.005370   0.000256  -3.671570   0.003834   0.002783  -3.610180   0.481980  -7.598740  -3.642870   0.000240   0.004890  -2.426150  -0.001751  -0.000043   6.012990   0.895946   8.427880  -0.000080  -0.006483  -0.006251  -0.000000  -0.004324  -0.002211  -6.936320 -10.221700  10.627300  19.785800  14.094700  98.570900 -27.553700 -12.459000  79.819700 -13.521300  26.689300  19.820700 -46.867800  37.243100  66.284400  24.891700   0.000045  -0.000677   7.445860   0.001710   0.005643  -1.833710  -0.114212   3.665890  -0.000000  -0.000224  -0.007153  -0.006289   0.002122  -0.005850  -3.383170   0.055928  -0.947207   0.000104   0.001090  -0.010508   0.006828   0.000576  -0.013301  -0.082173   0.012123  -7.238590  -0.000092   0.006794  -0.006582  -0.001657   0.004534  -0.002871   4.408910  -0.560297  -7.216930   6.666510   0.002467  -0.002896   4.439910   0.007133  -0.002652   2.521490  26.896800   3.395060   0.440407   0.074629   3.820030  -1.161300  -3.112850   1.997550  -0.000000   0.000000   0.000000   3.537680  14.606100  -2.781800  -0.038572  19.359200  -8.736030  -3.994300  -8.307630  -2.778770  -0.000000   0.000000   0.000000
  1.362600  89.086500  -0.102010  -2.656320 -23.997500   2.838610  -4.568450  14.867500   8.612340 -12.076600  28.768100  19.442900 -12.579900  -3.446670  -0.768881 -20.835000  -5.988230 -15.101200 -11.730500  -7.156060  -3.989440 -66.404500   3.069380 -45.562700  -9.582480   5.902240 -130.988000  42.179300  15.850700 -35.830600  35.443300  27.383200 -71.209700   7.334000  -0.000167   0.003201   8.667000  -0.000364   0.000690  -5.362680   0.922973  -9.734730  -4.452380   0.000916   0.004890  -3.116680   0.000651   0.009993  -5.484200   0.943491  -9.733030  -5.565030   0.005520   0.000186  -3.706290   0.003918   0.002772  -3.621620   0.487746  -7.655730  -3.654790   0.000239   0.005078  -2.434080  -0.001684  -0.000000   5.924280   0.871315   8.332970  -0.000160  -0.006601  -0.006318  -0.000000  -0.004407  -0.002212  -6.868710 -10.257500  10.605500  19.823200  14.175200  98.517900 -27.638700 -12.351000  79.749000 -13.422600  26.587200  19.830900 -46.843200  37.258400  66.197100  24.964100   0.000081  -0.000731   7.482050   0.001804   0.005742  -1.888240  -0.114486   3.599040  -0.000000  -0.000223  -0.007123  -0.006465   0.002113  -0.005807  -3.416540   0.062421  -1.045470   0.000069   0.001067  -0.010793   0.006990   0.000576  -0.013375  -0.105738   0.016771  -7.339540  -0.000118   0.006950  -0.006776  -0.001612   0.004642  -0.003002   4.368880  -0.560515  -7.318100   6.606880   0.002407  -0.002882   4.400200   0.007194  -0.002643   2.476200  26.910600   3.415710   0.422222   0.003869   3.870300  -1.158060  -3.090740   2.096470  -0.000000   0.000000   0.000000   3.504870  14.514900  -2.698050  -0.062317  19.425600  -8.671480  -3.994740  -8.271470  -2.835080  -0.000000   0.000000   0.000000
  1.430180  89.086600  -0.136521  -2.734970 -23.957300   2.650450  -4.475640  14.825400   8.585340 -11.864100  28.705200  19.351400 -12.556500  -3.404990  -0.758095 -20.794900  -5.919600 -15.165700 -11.695500  -7.101020  -3.988940 -66.542500   3.079570 -45.548000  -9.569160   5.794810 -130.968000  42.042000  15.771400 -35.632200  35.452400  27.396400 -71.216800   7.311230  -0.000150   0.003324   8.655610  -0.000307   0.000727  -5.426720   0.924998  -9.637870  -4.504020   0.001023   0.005058  -3.152810   0.000726   0.010207  -5.500700   0.936053  -9.636860  -5.580570   0.005669   0.000091  -3.716640   0.004005   0.002777  -3.717020   0.491926  -7.541670  -3.749140   0.000258   0.005266  -2.496920  -0.001611   0.000055   5.768110   0.861108   8.473680  -0.000158  -0.006712  -0.006385  -0.000000  -0.004479  -0.002204  -6.791230 -10.289300  10.586000  19.853800  14.264400  98.471000 -27.749900 -12.241200  79.651600 -13.335900  26.444500  19.849400 -46.786100  37.212500  66.098100  25.007500   0.000124  -0.000778   7.503720   0.001872   0.005839  -1.910590  -0.114818   3.594840  -0.000000  -0.000219  -0.007077  -0.006651   0.002107  -0.005774  -3.447090   0.065945  -1.090970   0.000027   0.001048  -0.011059   0.007163   0.000578  -0.013457  -0.152019   0.019113  -7.373850  -0.000005   0.007113  -0.006975  -0.001541   0.004748  -0.003126   4.339690  -0.559959  -7.352900   6.563410   0.002352  -0.002863   4.371250   0.007246  -0.002617   2.443430  26.875900   3.438630   0.400512   0.016391   3.926050  -1.150640  -3.109660   2.198710   0.000000   0.000000   0.000000   3.465850  14.408700  -2.654820  -0.085116  19.490100  -8.581860  -4.000330  -8.230540  -2.868050   0.000000   0.000000   0.000000
